<svg width="18" height="18" viewBox="0 0 18 18" fill="none" xmlns="http://www.w3.org/2000/svg">
<g id="Icon/twitter">
<path id="Vector" d="M16.2285 2.92951C15.4785 3.29701 14.7435 3.44626 13.9785 3.67201C13.1378 2.72326 11.8913 2.67076 10.6935 3.11926C9.49577 3.56776 8.71127 4.66426 8.72852 5.92201V6.67201C6.29477 6.73426 4.12727 5.62576 2.72852 3.67201C2.72852 3.67201 -0.407985 9.24676 5.72852 11.922C4.32452 12.8573 2.92427 13.488 1.22852 13.422C3.70952 14.7743 6.41327 15.2393 8.75402 14.5598C11.439 13.7798 13.6455 11.7675 14.4923 8.75326C14.7449 7.83651 14.8703 6.8894 14.865 5.93851C14.8635 5.75176 15.9975 3.85951 16.2285 2.92876V2.92951Z" stroke="#0F0B0B" stroke-width="1.125" stroke-linecap="round" stroke-linejoin="round"/>
</g>
</svg>
